<svg id="Layer_1" data-name="Layer 1" xmlns="http://www.w3.org/2000/svg" viewBox="0 0 355.19 60.88"><defs><style>.cls-1{fill:#f05;}</style></defs><path class="cls-1" d="M82.84,1.56H67.48L59.81,22.17,70.64,23l1.17-3.2.37,3.32,13.48,1Zm3.58,28.67-13.57-1,.91,8.23h-8.4l3.14-8.57L57.63,28,44.81,62.44H57L61.52,50H74.63L76,62.44H90.45Z" transform="translate(-44.81 -1.56)"/><path class="cls-1" d="M173.21,48.43l1.44-10.79h8.07l-22.05-1.7-3.56,26.5H193.2l1.9-14ZM198.69,14.9l1.79-13.34H165.29L161.47,30,193,32.41l1.08-8H176.41l1.27-9.54Z" transform="translate(-44.81 -1.56)"/><path class="cls-1" d="M303.26,1.56,294.5,26.94q-3.4,10-4.37,13l10.93.84L315.22,1.56Zm-27,43.28L279,62.44h14.18l5.73-15.86Zm8.15-43.28H269.48l5.83,37.19,14.39,1.11Z" transform="translate(-44.81 -1.56)"/><path class="cls-1" d="M400,19.22q0-8.16-4.2-12.91T382.89,1.56H361.5l-5.83,43.37L369.51,46l.91-6.71h5.79l1.36,7.33L392,47.72l-2.24-10.79Q400,32.28,400,19.22Zm-22.36,7.41h-5.51l1.66-12.31h5.12q6.68,0,6.67,5.62Q385.58,26.63,377.64,26.63Zm15.58,27.21-14.51-1.12,1.81,9.72H395Zm-38.35-3-1.55,11.55h14L368.71,52Z" transform="translate(-44.81 -1.56)"/></svg>