<svg id="Layer_1" data-name="Layer 1" xmlns="http://www.w3.org/2000/svg" height="64" width="400" viewBox="0 0 354.61 64"><defs><style>.cls-1{fill:#f05;}</style></defs><path class="cls-1" d="M23.43,29.08,21.67,41.92h8q-2.24,7.55-7.52,7.54-6.77,0-6.76-10.61a58.41,58.41,0,0,1,1.73-14L1.66,23.71A55.32,55.32,0,0,0,0,37.6,34.65,34.65,0,0,0,2.32,50.86a23.46,23.46,0,0,0,6.53,9.22,16.34,16.34,0,0,0,10.9,3.56q9.12,0,13.28-7.89l.43,6.69h7.08L45,29.08ZM25.65.13Q14,.13,7,11.19a41.27,41.27,0,0,0-3.41,6.65L19.09,19q2.32-4.71,6.38-4.71,5,0,6.79,5.73l9,.69,5.07-1Q42.13.13,25.65.13Z"/><path class="cls-1" d="M98.91,31.19,94.72,62.44h11.09l3.83-28.55c.08-.6.16-1.22.24-1.85ZM122.58,1.56h-19.7L99.71,25.24l10.87.83q.69-6.33,1.29-13.94c.09,1.16.19,2.8.28,4.91q.16,4.86.58,9.2l12.35,1ZM113.3,32.3l2.86,30.14H125L135.17,34Zm25.34,2-3.81,28.19h13.79l3.65-27.14ZM137,1.56l-9.31,25.83,9.61.74.39-1.1q1.47-4.16,3.23-10c.55-1.88,1-3.27,1.26-4.2-.22,1.55-.61,3.8-1.19,6.74s-1.09,5.92-1.5,8.72l13.61,1L156.8,1.56Z"/><path class="cls-1" d="M260.18,7.47A18.47,18.47,0,0,0,245,0q-11.5,0-18.65,10.68-6.62,9.9-7.1,23.76l15.51,1.19a84.67,84.67,0,0,1,2-12q2.22-9.49,7.72-9.5a5.44,5.44,0,0,1,4.61,2.41q1.74,2.41,1.74,7.09a88.65,88.65,0,0,1-1.15,10.44c-.14.92-.29,1.79-.44,2.63L265.11,38a57.77,57.77,0,0,0,1-10.93Q266.1,14.94,260.18,7.47ZM247.84,42.65a23.46,23.46,0,0,1-1.25,3.18c-1.32,2.66-3.24,4-5.78,4q-5.85,0-6.22-8.19L219.4,40.46q.79,10.45,6.23,16.47Q232,64,240.7,64,252,64,259.07,53.23a39.69,39.69,0,0,0,4.49-9.37Z"/><path class="cls-1" d="M352.82,14.9l1.79-13.34H319.42L314,41.73l14.07,1.08.69-5.17H346.4l1.79-13.2H330.54l1.27-9.54Zm-39.6,32.78-2,14.76h36.09l1.63-12Z"/></svg>